<svg xmlns="http://www.w3.org/2000/svg" version="1.1" xmlns:xlink="http://www.w3.org/1999/xlink" width="200" height="200"><svg xmlns="http://www.w3.org/2000/svg" version="1.1" xmlns:xlink="http://www.w3.org/1999/xlink" viewBox="0 0 200 200"><rect width="200" height="200" fill="url('#gradient')"></rect><defs><linearGradient id="SvgjsLinearGradient1006" gradientTransform="rotate(25 0.5 0.5)"><stop offset="0%" stop-color="#ddd4b2"></stop><stop offset="100%" stop-color="#e18e88"></stop></linearGradient></defs><g><g fill="#444045" transform="matrix(4.555610479485912,0,0,4.555610479485912,6.929189530947511,132.39464710092284)" stroke="#617c83" stroke-width="0.55"><path d="M9.17-4.81L12.58-4.81Q12.51-3.33 11.78-2.19Q11.04-1.05 9.72-0.43Q8.40 0.20 6.70 0.20L6.70 0.20Q3.90 0.20 2.29-1.63Q0.67-3.46 0.67-6.79L0.67-6.79L0.67-7.49Q0.67-9.58 1.40-11.15Q2.13-12.71 3.50-13.57Q4.86-14.42 6.66-14.42L6.66-14.42Q9.25-14.42 10.82-13.06Q12.39-11.70 12.61-9.31L12.61-9.31L9.19-9.31Q9.15-10.61 8.54-11.17Q7.92-11.74 6.66-11.74L6.66-11.74Q5.38-11.74 4.79-10.78Q4.19-9.82 4.16-7.72L4.16-7.72L4.16-6.72Q4.16-4.44 4.73-3.47Q5.30-2.49 6.70-2.49L6.70-2.49Q7.88-2.49 8.51-3.05Q9.13-3.60 9.17-4.81L9.17-4.81ZM21.51-10.57L23.17-4.34L24.24-10.57L27.39-10.57L24.90 0L22.12 0L20.37-6.27L18.61 0L15.83 0L13.34-10.57L16.49-10.57L17.54-4.19L19.22-10.57L21.51-10.57ZM36.51 0L34.00-5.02L32.15-5.02L32.15 0L28.72 0L28.72-14.22L34.32-14.22Q36.85-14.22 38.27-13.10Q39.70-11.97 39.70-9.92L39.70-9.92Q39.70-8.44 39.10-7.46Q38.50-6.48 37.22-5.88L37.22-5.88L40.19-0.15L40.19 0L36.51 0ZM32.15-11.57L32.15-7.67L34.32-7.67Q35.29-7.67 35.79-8.18Q36.28-8.69 36.28-9.61Q36.28-10.53 35.78-11.05Q35.28-11.57 34.32-11.57L34.32-11.57L32.15-11.57Z"></path></g></g></svg><style>@media (prefers-color-scheme: light) { :root { filter: none; } }
@media (prefers-color-scheme: dark) { :root { filter: none; } }
</style></svg>